<?xml version="1.0" encoding="utf-8"?>
<svg version="1.1" xmlns:xlink="http://www.w3.org/1999/xlink" width="43px" height="43px" xmlns="http://www.w3.org/2000/svg">
  <g transform="matrix(1 0 0 1 -13 -12 )">
    <path d="M 34.5 12  C 46.54 12  56 21.46  56 33.5  C 56 45.54  46.54 55  34.5 55  C 22.46 55  13 45.54  13 33.5  C 13 21.46  22.46 12  34.5 12  Z " fill-rule="nonzero" fill="#ffffff" stroke="none" />
    <path d="M 34.5 12.5  C 46.26 12.5  55.5 21.74  55.5 33.5  C 55.5 45.26  46.26 54.5  34.5 54.5  C 22.74 54.5  13.5 45.26  13.5 33.5  C 13.5 21.74  22.74 12.5  34.5 12.5  Z " stroke-width="1" stroke="#797979" fill="none" />
  </g>
</svg>