<?xml version="1.0" encoding="utf-8"?>
<svg version="1.1" xmlns:xlink="http://www.w3.org/1999/xlink" width="15px" height="18px" xmlns="http://www.w3.org/2000/svg">
  <g transform="matrix(1 0 0 1 -521 -514 )">
    <path d="M 6.25 13.9453125  C 6.41927083333333 13.9453125  6.56575520833333 13.87109375  6.689453125 13.72265625  L 12.685546875 6.52734375  C 12.8092447916667 6.37890625  12.87109375 6.203125  12.87109375 6  C 12.87109375 5.796875  12.8092447916667 5.62109375  12.685546875 5.47265625  L 11.689453125 4.27734375  C 11.5657552083333 4.12890625  11.4192708333333 4.0546875  11.25 4.0546875  C 11.0807291666667 4.0546875  10.9342447916667 4.12890625  10.810546875 4.27734375  L 6.25 9.75  L 4.189453125 7.27734375  C 4.06575520833333 7.12890625  3.91927083333333 7.0546875  3.75 7.0546875  C 3.58072916666667 7.0546875  3.43424479166667 7.12890625  3.310546875 7.27734375  L 2.314453125 8.47265625  C 2.19075520833333 8.62109375  2.12890625 8.796875  2.12890625 9  C 2.12890625 9.203125  2.19075520833333 9.37890625  2.314453125 9.52734375  L 5.810546875 13.72265625  C 5.93424479166667 13.87109375  6.08072916666667 13.9453125  6.25 13.9453125  Z M 14.1748046875 0.990234375000001  C 14.7249348958333 1.650390625  15 2.4453125  15 3.375  L 15 14.625  C 15 15.5546875  14.7249348958333 16.349609375  14.1748046875 17.009765625  C 13.6246744791667 17.669921875  12.9622395833333 18  12.1875 18  L 2.8125 18  C 2.03776041666667 18  1.37532552083333 17.669921875  0.8251953125 17.009765625  C 0.275065104166667 16.349609375  0 15.5546875  0 14.625  L 0 3.375  C 0 2.4453125  0.275065104166667 1.650390625  0.8251953125 0.990234375000001  C 1.37532552083333 0.330078124999999  2.03776041666667 0  2.8125 0  L 12.1875 0  C 12.9622395833333 0  13.6246744791667 0.330078124999999  14.1748046875 0.990234375000001  Z " fill-rule="nonzero" fill="#0000ff" stroke="none" transform="matrix(1 0 0 1 521 514 )" />
  </g>
</svg>